<mxfile host="app.diagrams.net" modified="2024-06-27T19:05:20.067Z" agent="Mozilla/5.0 (Windows NT 10.0; Win64; x64) AppleWebKit/537.36 (KHTML, like Gecko) Chrome/125.0.0.0 Safari/537.36 Edg/125.0.0.0" etag="KKP1TESmaBC7i8CNxy-9" version="24.6.3" type="github">
  <diagram name="Page-1" id="2YBvvXClWsGukQMizWep">
    <mxGraphModel dx="1179" dy="669" grid="1" gridSize="10" guides="1" tooltips="1" connect="1" arrows="1" fold="1" page="1" pageScale="1" pageWidth="850" pageHeight="1100" math="0" shadow="0">
      <root>
        <mxCell id="0" />
        <mxCell id="1" parent="0" />
        <mxCell id="aM9ryv3xv72pqoxQDRHE-1" value="fac:Facade" style="shape=umlLifeline;perimeter=lifelinePerimeter;whiteSpace=wrap;html=1;container=0;dropTarget=0;collapsible=0;recursiveResize=0;outlineConnect=0;portConstraint=eastwest;newEdgeStyle={&quot;edgeStyle&quot;:&quot;elbowEdgeStyle&quot;,&quot;elbow&quot;:&quot;vertical&quot;,&quot;curved&quot;:0,&quot;rounded&quot;:0};fontSize=19;" parent="1" vertex="1">
          <mxGeometry x="40" y="40" width="100" height="390" as="geometry" />
        </mxCell>
        <mxCell id="aM9ryv3xv72pqoxQDRHE-2" value="" style="html=1;points=[];perimeter=orthogonalPerimeter;outlineConnect=0;targetShapes=umlLifeline;portConstraint=eastwest;newEdgeStyle={&quot;edgeStyle&quot;:&quot;elbowEdgeStyle&quot;,&quot;elbow&quot;:&quot;vertical&quot;,&quot;curved&quot;:0,&quot;rounded&quot;:0};fontSize=19;" parent="aM9ryv3xv72pqoxQDRHE-1" vertex="1">
          <mxGeometry x="45" y="70" width="10" height="280" as="geometry" />
        </mxCell>
        <mxCell id="aM9ryv3xv72pqoxQDRHE-5" value="itemCTR:ItemControler" style="shape=umlLifeline;perimeter=lifelinePerimeter;whiteSpace=wrap;html=1;container=0;dropTarget=0;collapsible=0;recursiveResize=0;outlineConnect=0;portConstraint=eastwest;newEdgeStyle={&quot;edgeStyle&quot;:&quot;elbowEdgeStyle&quot;,&quot;elbow&quot;:&quot;vertical&quot;,&quot;curved&quot;:0,&quot;rounded&quot;:0};fontSize=19;" parent="1" vertex="1">
          <mxGeometry x="460" y="40" width="190" height="360" as="geometry" />
        </mxCell>
        <mxCell id="aM9ryv3xv72pqoxQDRHE-6" value="" style="html=1;points=[];perimeter=orthogonalPerimeter;outlineConnect=0;targetShapes=umlLifeline;portConstraint=eastwest;newEdgeStyle={&quot;edgeStyle&quot;:&quot;elbowEdgeStyle&quot;,&quot;elbow&quot;:&quot;vertical&quot;,&quot;curved&quot;:0,&quot;rounded&quot;:0};fontSize=19;" parent="aM9ryv3xv72pqoxQDRHE-5" vertex="1">
          <mxGeometry x="90" y="80" width="10" height="140" as="geometry" />
        </mxCell>
        <mxCell id="aM9ryv3xv72pqoxQDRHE-7" value="" style="html=1;verticalAlign=bottom;endArrow=block;edgeStyle=elbowEdgeStyle;elbow=vertical;curved=0;rounded=0;fontSize=19;" parent="1" source="aM9ryv3xv72pqoxQDRHE-2" target="aM9ryv3xv72pqoxQDRHE-6" edge="1">
          <mxGeometry relative="1" as="geometry">
            <mxPoint x="195" y="130" as="sourcePoint" />
            <Array as="points">
              <mxPoint x="180" y="120" />
            </Array>
          </mxGeometry>
        </mxCell>
        <mxCell id="9JyKOaciVN9gGJ-EEhEV-10" value="&amp;lt;catNum, location&amp;gt; =&lt;br&gt;&amp;nbsp;removeItemCTR(int idToRem)&amp;nbsp;" style="edgeLabel;html=1;align=center;verticalAlign=middle;resizable=0;points=[];fontSize=19;" vertex="1" connectable="0" parent="aM9ryv3xv72pqoxQDRHE-7">
          <mxGeometry x="0.0571" relative="1" as="geometry">
            <mxPoint as="offset" />
          </mxGeometry>
        </mxCell>
        <mxCell id="9JyKOaciVN9gGJ-EEhEV-1" value="itemRepo:ItemRepo" style="shape=umlLifeline;perimeter=lifelinePerimeter;whiteSpace=wrap;html=1;container=0;dropTarget=0;collapsible=0;recursiveResize=0;outlineConnect=0;portConstraint=eastwest;newEdgeStyle={&quot;edgeStyle&quot;:&quot;elbowEdgeStyle&quot;,&quot;elbow&quot;:&quot;vertical&quot;,&quot;curved&quot;:0,&quot;rounded&quot;:0};fontSize=19;" vertex="1" parent="1">
          <mxGeometry x="790" y="40" width="190" height="370" as="geometry" />
        </mxCell>
        <mxCell id="9JyKOaciVN9gGJ-EEhEV-2" value="" style="html=1;points=[];perimeter=orthogonalPerimeter;outlineConnect=0;targetShapes=umlLifeline;portConstraint=eastwest;newEdgeStyle={&quot;edgeStyle&quot;:&quot;elbowEdgeStyle&quot;,&quot;elbow&quot;:&quot;vertical&quot;,&quot;curved&quot;:0,&quot;rounded&quot;:0};fontSize=19;" vertex="1" parent="9JyKOaciVN9gGJ-EEhEV-1">
          <mxGeometry x="90" y="80" width="10" height="70" as="geometry" />
        </mxCell>
        <mxCell id="9JyKOaciVN9gGJ-EEhEV-8" value="" style="html=1;points=[];perimeter=orthogonalPerimeter;outlineConnect=0;targetShapes=umlLifeline;portConstraint=eastwest;newEdgeStyle={&quot;edgeStyle&quot;:&quot;elbowEdgeStyle&quot;,&quot;elbow&quot;:&quot;vertical&quot;,&quot;curved&quot;:0,&quot;rounded&quot;:0};fontSize=19;" vertex="1" parent="9JyKOaciVN9gGJ-EEhEV-1">
          <mxGeometry x="90" y="200" width="10" height="20" as="geometry" />
        </mxCell>
        <mxCell id="9JyKOaciVN9gGJ-EEhEV-3" style="edgeStyle=elbowEdgeStyle;rounded=0;orthogonalLoop=1;jettySize=auto;html=1;elbow=vertical;curved=0;fontSize=19;" edge="1" parent="1">
          <mxGeometry relative="1" as="geometry">
            <mxPoint x="560" y="250.00137931034487" as="sourcePoint" />
            <mxPoint x="884.5" y="250.0689655172414" as="targetPoint" />
          </mxGeometry>
        </mxCell>
        <mxCell id="9JyKOaciVN9gGJ-EEhEV-4" value="remove(idToRem)" style="edgeLabel;html=1;align=center;verticalAlign=middle;resizable=0;points=[];fontSize=19;" vertex="1" connectable="0" parent="9JyKOaciVN9gGJ-EEhEV-3">
          <mxGeometry x="-0.1297" y="2" relative="1" as="geometry">
            <mxPoint as="offset" />
          </mxGeometry>
        </mxCell>
        <mxCell id="9JyKOaciVN9gGJ-EEhEV-5" style="edgeStyle=elbowEdgeStyle;rounded=0;orthogonalLoop=1;jettySize=auto;html=1;elbow=vertical;curved=0;fontSize=19;" edge="1" parent="1">
          <mxGeometry relative="1" as="geometry">
            <mxPoint x="560" y="130.28137931034487" as="sourcePoint" />
            <mxPoint x="884.5" y="130.28137931034487" as="targetPoint" />
          </mxGeometry>
        </mxCell>
        <mxCell id="9JyKOaciVN9gGJ-EEhEV-6" value="removed = find(idToRem)" style="edgeLabel;html=1;align=center;verticalAlign=middle;resizable=0;points=[];fontSize=19;" vertex="1" connectable="0" parent="9JyKOaciVN9gGJ-EEhEV-5">
          <mxGeometry x="-0.0722" y="-1" relative="1" as="geometry">
            <mxPoint x="19" y="-1" as="offset" />
          </mxGeometry>
        </mxCell>
        <mxCell id="9JyKOaciVN9gGJ-EEhEV-7" value="" style="html=1;verticalAlign=bottom;endArrow=open;dashed=1;endSize=8;curved=0;rounded=0;fontSize=19;" edge="1" parent="1" target="aM9ryv3xv72pqoxQDRHE-5">
          <mxGeometry relative="1" as="geometry">
            <mxPoint x="880" y="180" as="sourcePoint" />
            <mxPoint x="800" y="180" as="targetPoint" />
          </mxGeometry>
        </mxCell>
        <mxCell id="9JyKOaciVN9gGJ-EEhEV-9" value="removed" style="edgeLabel;html=1;align=center;verticalAlign=middle;resizable=0;points=[];fontSize=19;" vertex="1" connectable="0" parent="9JyKOaciVN9gGJ-EEhEV-7">
          <mxGeometry x="0.0313" relative="1" as="geometry">
            <mxPoint as="offset" />
          </mxGeometry>
        </mxCell>
        <mxCell id="9JyKOaciVN9gGJ-EEhEV-11" value="" style="html=1;verticalAlign=bottom;endArrow=open;dashed=1;endSize=8;curved=0;rounded=0;fontSize=19;" edge="1" parent="1">
          <mxGeometry relative="1" as="geometry">
            <mxPoint x="555" y="200" as="sourcePoint" />
            <mxPoint x="89.66666666666663" y="200" as="targetPoint" />
          </mxGeometry>
        </mxCell>
        <mxCell id="9JyKOaciVN9gGJ-EEhEV-13" value="&amp;lt;catNum, location&amp;gt;" style="edgeLabel;html=1;align=center;verticalAlign=middle;resizable=0;points=[];fontSize=19;" vertex="1" connectable="0" parent="9JyKOaciVN9gGJ-EEhEV-11">
          <mxGeometry x="-0.0193" y="2" relative="1" as="geometry">
            <mxPoint as="offset" />
          </mxGeometry>
        </mxCell>
        <mxCell id="9JyKOaciVN9gGJ-EEhEV-14" value="prodCTR:ProductControler" style="shape=umlLifeline;perimeter=lifelinePerimeter;whiteSpace=wrap;html=1;container=0;dropTarget=0;collapsible=0;recursiveResize=0;outlineConnect=0;portConstraint=eastwest;newEdgeStyle={&quot;edgeStyle&quot;:&quot;elbowEdgeStyle&quot;,&quot;elbow&quot;:&quot;vertical&quot;,&quot;curved&quot;:0,&quot;rounded&quot;:0};fontSize=19;" vertex="1" parent="1">
          <mxGeometry x="1060" y="40" width="230" height="380" as="geometry" />
        </mxCell>
        <mxCell id="9JyKOaciVN9gGJ-EEhEV-15" value="" style="html=1;points=[];perimeter=orthogonalPerimeter;outlineConnect=0;targetShapes=umlLifeline;portConstraint=eastwest;newEdgeStyle={&quot;edgeStyle&quot;:&quot;elbowEdgeStyle&quot;,&quot;elbow&quot;:&quot;vertical&quot;,&quot;curved&quot;:0,&quot;rounded&quot;:0};fontSize=19;" vertex="1" parent="9JyKOaciVN9gGJ-EEhEV-14">
          <mxGeometry x="110" y="250" width="10" height="90" as="geometry" />
        </mxCell>
        <mxCell id="9JyKOaciVN9gGJ-EEhEV-16" style="edgeStyle=elbowEdgeStyle;rounded=0;orthogonalLoop=1;jettySize=auto;html=1;elbow=vertical;curved=0;fontSize=19;" edge="1" parent="1" target="9JyKOaciVN9gGJ-EEhEV-15">
          <mxGeometry relative="1" as="geometry">
            <mxPoint x="95" y="299.9966666666667" as="sourcePoint" />
            <mxPoint x="1154.5000000000002" y="299.9966666666667" as="targetPoint" />
          </mxGeometry>
        </mxCell>
        <mxCell id="9JyKOaciVN9gGJ-EEhEV-17" value="removeItemCTR(catNum, location) " style="edgeLabel;html=1;align=center;verticalAlign=middle;resizable=0;points=[];fontSize=19;" vertex="1" connectable="0" parent="9JyKOaciVN9gGJ-EEhEV-16">
          <mxGeometry x="-0.0565" y="-1" relative="1" as="geometry">
            <mxPoint as="offset" />
          </mxGeometry>
        </mxCell>
        <mxCell id="9JyKOaciVN9gGJ-EEhEV-18" value="prodCTR:ProductControler" style="shape=umlLifeline;perimeter=lifelinePerimeter;whiteSpace=wrap;html=1;container=0;dropTarget=0;collapsible=0;recursiveResize=0;outlineConnect=0;portConstraint=eastwest;newEdgeStyle={&quot;edgeStyle&quot;:&quot;elbowEdgeStyle&quot;,&quot;elbow&quot;:&quot;vertical&quot;,&quot;curved&quot;:0,&quot;rounded&quot;:0};fontSize=19;" vertex="1" parent="1">
          <mxGeometry x="1450" y="40" width="230" height="380" as="geometry" />
        </mxCell>
        <mxCell id="9JyKOaciVN9gGJ-EEhEV-19" value="" style="html=1;points=[];perimeter=orthogonalPerimeter;outlineConnect=0;targetShapes=umlLifeline;portConstraint=eastwest;newEdgeStyle={&quot;edgeStyle&quot;:&quot;elbowEdgeStyle&quot;,&quot;elbow&quot;:&quot;vertical&quot;,&quot;curved&quot;:0,&quot;rounded&quot;:0};fontSize=19;" vertex="1" parent="9JyKOaciVN9gGJ-EEhEV-18">
          <mxGeometry x="110" y="280" width="10" height="50" as="geometry" />
        </mxCell>
        <mxCell id="9JyKOaciVN9gGJ-EEhEV-20" style="edgeStyle=elbowEdgeStyle;rounded=0;orthogonalLoop=1;jettySize=auto;html=1;elbow=vertical;curved=0;fontSize=19;" edge="1" parent="1" target="9JyKOaciVN9gGJ-EEhEV-18">
          <mxGeometry relative="1" as="geometry">
            <mxPoint x="1200" y="335" as="sourcePoint" />
            <Array as="points">
              <mxPoint x="1180" y="335" />
            </Array>
          </mxGeometry>
        </mxCell>
        <mxCell id="9JyKOaciVN9gGJ-EEhEV-21" value="removeItemInven(catNum, location)" style="edgeLabel;html=1;align=center;verticalAlign=middle;resizable=0;points=[];fontSize=19;" vertex="1" connectable="0" parent="9JyKOaciVN9gGJ-EEhEV-20">
          <mxGeometry x="-0.0775" y="-1" relative="1" as="geometry">
            <mxPoint as="offset" />
          </mxGeometry>
        </mxCell>
        <mxCell id="9JyKOaciVN9gGJ-EEhEV-23" value="prodCTR:ProductControler" style="shape=umlLifeline;perimeter=lifelinePerimeter;whiteSpace=wrap;html=1;container=0;dropTarget=0;collapsible=0;recursiveResize=0;outlineConnect=0;portConstraint=eastwest;newEdgeStyle={&quot;edgeStyle&quot;:&quot;elbowEdgeStyle&quot;,&quot;elbow&quot;:&quot;vertical&quot;,&quot;curved&quot;:0,&quot;rounded&quot;:0};fontSize=19;" vertex="1" parent="1">
          <mxGeometry x="1900" y="30" width="220" height="400" as="geometry" />
        </mxCell>
        <mxCell id="9JyKOaciVN9gGJ-EEhEV-24" value="" style="html=1;points=[];perimeter=orthogonalPerimeter;outlineConnect=0;targetShapes=umlLifeline;portConstraint=eastwest;newEdgeStyle={&quot;edgeStyle&quot;:&quot;elbowEdgeStyle&quot;,&quot;elbow&quot;:&quot;vertical&quot;,&quot;curved&quot;:0,&quot;rounded&quot;:0};fontSize=19;" vertex="1" parent="9JyKOaciVN9gGJ-EEhEV-23">
          <mxGeometry x="105" y="310" width="10" height="30" as="geometry" />
        </mxCell>
        <mxCell id="9JyKOaciVN9gGJ-EEhEV-27" style="edgeStyle=elbowEdgeStyle;rounded=0;orthogonalLoop=1;jettySize=auto;html=1;elbow=vertical;curved=0;fontSize=19;" edge="1" parent="1" target="9JyKOaciVN9gGJ-EEhEV-23">
          <mxGeometry relative="1" as="geometry">
            <mxPoint x="1610" y="355" as="sourcePoint" />
            <Array as="points">
              <mxPoint x="1570" y="355" />
            </Array>
          </mxGeometry>
        </mxCell>
        <mxCell id="9JyKOaciVN9gGJ-EEhEV-28" value="&lt;span style=&quot;font-size: 19px; background-color: rgb(251, 251, 251);&quot;&gt;removeItemRepo(catNum, location)&lt;/span&gt;" style="edgeLabel;html=1;align=center;verticalAlign=middle;resizable=0;points=[];fontSize=19;" vertex="1" connectable="0" parent="9JyKOaciVN9gGJ-EEhEV-27">
          <mxGeometry x="-0.0852" y="-2" relative="1" as="geometry">
            <mxPoint as="offset" />
          </mxGeometry>
        </mxCell>
      </root>
    </mxGraphModel>
  </diagram>
</mxfile>
